<?xml version="1.0" encoding="UTF-8" standalone="no" ?>
<!DOCTYPE svg PUBLIC "-//W3C//DTD SVG 1.1//EN" "http://www.w3.org/Graphics/SVG/1.1/DTD/svg11.dtd">
<svg xmlns="http://www.w3.org/2000/svg" xmlns:xlink="http://www.w3.org/1999/xlink" version="1.1" width="476.57" height="385.4801" xml:space="preserve">
<desc>Created with Fabric.js 1.6.0-rc.1</desc>
<defs></defs>
<g style="stroke: none; stroke-width: 1; stroke-dasharray: none; stroke-linecap: butt; stroke-linejoin: miter; stroke-miterlimit: 10; fill: none; fill-rule: nonzero; opacity: 1;" transform="translate(10 10) scale(0.89 0.81)" >
  <path d="M 485.517 61.793 H 26.483 C 11.857 61.793 0 73.65 0 88.276 v 335.448 c 0 14.626 11.857 26.483 26.483 26.483 h 459.034 c 14.626 0 26.483 -11.857 26.483 -26.483 V 88.276 C 512 73.65 500.143 61.793 485.517 61.793 z M 441.379 79.448 h 8.828 c 4.875 0 8.828 3.953 8.828 8.828 c 0 4.875 -3.953 8.828 -8.828 8.828 h -8.828 c -4.875 0 -8.828 -3.953 -8.828 -8.828 C 432.552 83.401 436.504 79.448 441.379 79.448 z M 194.207 79.448 h 211.862 c 4.875 0 8.828 3.953 8.828 8.828 c 0 4.875 -3.953 8.828 -8.828 8.828 H 194.207 c -4.875 0 -8.828 -3.953 -8.828 -8.828 C 185.379 83.401 189.332 79.448 194.207 79.448 z M 150.069 79.448 h 8.828 c 4.875 0 8.828 3.953 8.828 8.828 c 0 4.875 -3.953 8.828 -8.828 8.828 h -8.828 c -4.875 0 -8.828 -3.953 -8.828 -8.828 C 141.241 83.401 145.194 79.448 150.069 79.448 z M 114.759 79.448 h 8.828 c 4.875 0 8.828 3.953 8.828 8.828 c 0 4.875 -3.953 8.828 -8.828 8.828 h -8.828 c -4.875 0 -8.828 -3.953 -8.828 -8.828 C 105.931 83.401 109.884 79.448 114.759 79.448 z M 79.448 79.448 c 4.875 0 8.828 3.953 8.828 8.828 c 0 4.875 -3.953 8.828 -8.828 8.828 c -4.875 0 -8.828 -3.953 -8.828 -8.828 C 70.621 83.401 74.573 79.448 79.448 79.448 z M 52.966 79.448 c 4.875 0 8.828 3.953 8.828 8.828 c 0 4.875 -3.953 8.828 -8.828 8.828 s -8.828 -3.953 -8.828 -8.828 C 44.138 83.401 48.09 79.448 52.966 79.448 z M 26.483 79.448 c 4.875 0 8.828 3.953 8.828 8.828 c 0 4.875 -3.953 8.828 -8.828 8.828 s -8.828 -3.953 -8.828 -8.828 C 17.655 83.401 21.608 79.448 26.483 79.448 z M 494.345 167.724 v 256 c 0 4.875 -3.953 8.828 -8.828 8.828 H 256 H 26.483 h -7.724 c -0.609 0 -1.103 -0.494 -1.103 -1.103 v -7.724 v -256 v -44.138 v -7.724 c 0 -0.609 0.494 -1.103 1.103 -1.103 h 7.724 H 256 h 229.517 c 4.875 0 8.828 3.953 8.828 8.828 V 167.724 z M 485.517 97.103 h -8.828 c -4.875 0 -8.828 -3.953 -8.828 -8.828 c 0 -4.875 3.953 -8.828 8.828 -8.828 h 8.828 c 4.875 0 8.828 3.953 8.828 8.828 C 494.345 93.151 490.392 97.103 485.517 97.103 z" style="stroke: none; stroke-width: 1; stroke-dasharray: none; stroke-linecap: butt; stroke-linejoin: miter; stroke-miterlimit: 10; fill: #3e4c69; fill-rule: nonzero; opacity: 1;" transform=" matrix(1 0 0 1 0 0) " stroke-linecap="round" />
  <path d="M 256 206.497 v 26.483 v 17.655 v 105.931 v 17.655 v 26.483 v 31.848 h 229.517 c 4.875 0 8.828 -3.953 8.828 -8.828 v -256 H 256 V 206.497 z M 388.414 211.862 v -8.828 c 0 -4.875 3.953 -8.828 8.828 -8.828 h 61.793 c 4.875 0 8.828 3.953 8.828 8.828 v 8.828 v 70.621 c 0 4.875 -3.953 8.828 -8.828 8.828 h -61.793 c -4.875 0 -8.828 -3.953 -8.828 -8.828 V 211.862 z M 282.483 211.862 v -8.828 c 0 -4.875 3.953 -8.828 8.828 -8.828 h 61.793 c 4.875 0 8.828 3.953 8.828 8.828 v 8.828 v 70.621 c 0 4.875 -3.953 8.828 -8.828 8.828 H 291.31 c -4.875 0 -8.828 -3.953 -8.828 -8.828 V 211.862 z M 291.31 317.793 h 8.828 h 158.897 c 4.875 0 8.828 3.953 8.828 8.828 v 70.621 c 0 4.875 -3.953 8.828 -8.828 8.828 H 300.138 h -8.828 c -4.875 0 -8.828 -3.953 -8.828 -8.828 v -70.621 C 282.483 321.746 286.435 317.793 291.31 317.793 z" style="stroke: none; stroke-width: 1; stroke-dasharray: none; stroke-linecap: butt; stroke-linejoin: miter; stroke-miterlimit: 10; fill: #3bbdac; fill-rule: nonzero; opacity: 0;" transform=" matrix(1 0 0 1 0 0) " stroke-linecap="round" />
  <circle cx="26.488" cy="88.278" r="8.828" style="stroke: none; stroke-width: 1; stroke-dasharray: none; stroke-linecap: butt; stroke-linejoin: miter; stroke-miterlimit: 10; fill: #1a0000; fill-rule: nonzero; opacity: 1;" transform="  matrix(1 0 0 1 0 0) "/>
  <circle cx="52.968" cy="88.278" r="8.828" style="stroke: none; stroke-width: 1; stroke-dasharray: none; stroke-linecap: butt; stroke-linejoin: miter; stroke-miterlimit: 10; fill: #FFE169; fill-rule: nonzero; opacity: 1;" transform="  matrix(1 0 0 1 0 0) "/>
  <circle cx="79.44800000000001" cy="88.278" r="8.828" style="stroke: none; stroke-width: 1; stroke-dasharray: none; stroke-linecap: butt; stroke-linejoin: miter; stroke-miterlimit: 10; fill: #87E1AA; fill-rule: nonzero; opacity: 1;" transform="  matrix(1 0 0 1 0 0) "/>
  <path d="M 114.759 97.103 h 8.828 c 4.875 0 8.828 -3.953 8.828 -8.828 c 0 -4.875 -3.953 -8.828 -8.828 -8.828 h -8.828 c -4.875 0 -8.828 3.953 -8.828 8.828 C 105.931 93.151 109.884 97.103 114.759 97.103 z" style="stroke: none; stroke-width: 1; stroke-dasharray: none; stroke-linecap: butt; stroke-linejoin: miter; stroke-miterlimit: 10; fill: #E4EAF6; fill-rule: nonzero; opacity: 1;" transform=" matrix(1 0 0 1 0 0) " stroke-linecap="round" />
  <path d="M 150.069 97.103 h 8.828 c 4.875 0 8.828 -3.953 8.828 -8.828 c 0 -4.875 -3.953 -8.828 -8.828 -8.828 h -8.828 c -4.875 0 -8.828 3.953 -8.828 8.828 C 141.241 93.151 145.194 97.103 150.069 97.103 z" style="stroke: none; stroke-width: 1; stroke-dasharray: none; stroke-linecap: butt; stroke-linejoin: miter; stroke-miterlimit: 10; fill: #E4EAF6; fill-rule: nonzero; opacity: 1;" transform=" matrix(1 0 0 1 0 0) " stroke-linecap="round" />
  <path d="M 441.379 97.103 h 8.828 c 4.875 0 8.828 -3.953 8.828 -8.828 c 0 -4.875 -3.953 -8.828 -8.828 -8.828 h -8.828 c -4.875 0 -8.828 3.953 -8.828 8.828 C 432.552 93.151 436.504 97.103 441.379 97.103 z" style="stroke: none; stroke-width: 1; stroke-dasharray: none; stroke-linecap: butt; stroke-linejoin: miter; stroke-miterlimit: 10; fill: #E4EAF6; fill-rule: nonzero; opacity: 1;" transform=" matrix(1 0 0 1 0 0) " stroke-linecap="round" />
  <path d="M 485.517 79.448 h -8.828 c -4.875 0 -8.828 3.953 -8.828 8.828 c 0 4.875 3.953 8.828 8.828 8.828 h 8.828 c 4.875 0 8.828 -3.953 8.828 -8.828 C 494.345 83.401 490.392 79.448 485.517 79.448 z" style="stroke: none; stroke-width: 1; stroke-dasharray: none; stroke-linecap: butt; stroke-linejoin: miter; stroke-miterlimit: 10; fill: #E4EAF6; fill-rule: nonzero; opacity: 1;" transform=" matrix(1 0 0 1 0 0) " stroke-linecap="round" />
  <path d="M 194.207 97.103 h 211.862 c 4.875 0 8.828 -3.953 8.828 -8.828 c 0 -4.875 -3.953 -8.828 -8.828 -8.828 H 194.207 c -4.875 0 -8.828 3.953 -8.828 8.828 C 185.379 93.151 189.332 97.103 194.207 97.103 z" style="stroke: none; stroke-width: 1; stroke-dasharray: none; stroke-linecap: butt; stroke-linejoin: miter; stroke-miterlimit: 10; fill: #E4EAF6; fill-rule: nonzero; opacity: 1;" transform=" matrix(1 0 0 1 0 0) " stroke-linecap="round" />
  <path d="M 485.517 114.759 H 256 v 52.966 h 238.345 v -44.138 C 494.345 118.711 490.392 114.759 485.517 114.759 z M 317.793 150.069 h -35.31 c -4.875 0 -8.828 -3.953 -8.828 -8.828 s 3.953 -8.828 8.828 -8.828 h 35.31 c 4.875 0 8.828 3.953 8.828 8.828 S 322.668 150.069 317.793 150.069 z M 388.414 150.069 h -35.31 c -4.875 0 -8.828 -3.953 -8.828 -8.828 s 3.953 -8.828 8.828 -8.828 h 35.31 c 4.875 0 8.828 3.953 8.828 8.828 S 393.289 150.069 388.414 150.069 z M 459.034 150.069 h -35.31 c -4.875 0 -8.828 -3.953 -8.828 -8.828 s 3.953 -8.828 8.828 -8.828 h 35.31 c 4.875 0 8.828 3.953 8.828 8.828 S 463.91 150.069 459.034 150.069 z" style="stroke: none; stroke-width: 1; stroke-dasharray: none; stroke-linecap: butt; stroke-linejoin: miter; stroke-miterlimit: 10; fill: #1a0000; fill-rule: nonzero; opacity: 1;" transform=" matrix(1 0 0 1 0 0) " stroke-linecap="round" />
  <path d="M 317.793 132.414 h -35.31 c -4.875 0 -8.828 3.953 -8.828 8.828 s 3.953 8.828 8.828 8.828 h 35.31 c 4.875 0 8.828 -3.953 8.828 -8.828 S 322.668 132.414 317.793 132.414 z" style="stroke: none; stroke-width: 1; stroke-dasharray: none; stroke-linecap: butt; stroke-linejoin: miter; stroke-miterlimit: 10; fill: #D2555F; fill-rule: nonzero; opacity: 1;" transform=" matrix(1 0 0 1 0 0) " stroke-linecap="round" />
  <path d="M 388.414 132.414 h -35.31 c -4.875 0 -8.828 3.953 -8.828 8.828 s 3.953 8.828 8.828 8.828 h 35.31 c 4.875 0 8.828 -3.953 8.828 -8.828 S 393.289 132.414 388.414 132.414 z" style="stroke: none; stroke-width: 1; stroke-dasharray: none; stroke-linecap: butt; stroke-linejoin: miter; stroke-miterlimit: 10; fill: #D2555F; fill-rule: nonzero; opacity: 1;" transform=" matrix(1 0 0 1 0 0) " stroke-linecap="round" />
  <path d="M 459.034 132.414 h -35.31 c -4.875 0 -8.828 3.953 -8.828 8.828 s 3.953 8.828 8.828 8.828 h 35.31 c 4.875 0 8.828 -3.953 8.828 -8.828 S 463.91 132.414 459.034 132.414 z" style="stroke: none; stroke-width: 1; stroke-dasharray: none; stroke-linecap: butt; stroke-linejoin: miter; stroke-miterlimit: 10; fill: #D2555F; fill-rule: nonzero; opacity: 1;" transform=" matrix(1 0 0 1 0 0) " stroke-linecap="round" />
  <path d="M 291.31 291.31 h 61.793 c 4.875 0 8.828 -3.953 8.828 -8.828 v -70.621 c 0 4.875 -3.953 8.828 -8.828 8.828 H 291.31 c -4.875 0 -8.828 -3.953 -8.828 -8.828 v 70.621 C 282.483 287.358 286.435 291.31 291.31 291.31 z" style="stroke: none; stroke-width: 1; stroke-dasharray: none; stroke-linecap: butt; stroke-linejoin: miter; stroke-miterlimit: 10; fill: #DEE3ED; fill-rule: nonzero; opacity: 1;" transform=" matrix(1 0 0 1 0 0) " stroke-linecap="round" />
  <path d="M 397.241 291.31 h 61.793 c 4.875 0 8.828 -3.953 8.828 -8.828 v -70.621 c 0 4.875 -3.953 8.828 -8.828 8.828 h -61.793 c -4.875 0 -8.828 -3.953 -8.828 -8.828 v 70.621 C 388.414 287.358 392.366 291.31 397.241 291.31 z" style="stroke: none; stroke-width: 1; stroke-dasharray: none; stroke-linecap: butt; stroke-linejoin: miter; stroke-miterlimit: 10; fill: #DEE3ED; fill-rule: nonzero; opacity: 1;" transform=" matrix(1 0 0 1 0 0) " stroke-linecap="round" />
  <path d="M 291.31 220.69 h 61.793 c 4.875 0 8.828 -3.953 8.828 -8.828 v -8.828 c 0 -4.875 -3.953 -8.828 -8.828 -8.828 H 291.31 c -4.875 0 -8.828 3.953 -8.828 8.828 v 8.828 C 282.483 216.737 286.435 220.69 291.31 220.69 z" style="stroke: none; stroke-width: 1; stroke-dasharray: none; stroke-linecap: butt; stroke-linejoin: miter; stroke-miterlimit: 10; fill: #FF969B; fill-rule: nonzero; opacity: 1;" transform=" matrix(1 0 0 1 0 0) " stroke-linecap="round" />
  <path d="M 397.241 220.69 h 61.793 c 4.875 0 8.828 -3.953 8.828 -8.828 v -8.828 c 0 -4.875 -3.953 -8.828 -8.828 -8.828 h -61.793 c -4.875 0 -8.828 3.953 -8.828 8.828 v 8.828 C 388.414 216.737 392.366 220.69 397.241 220.69 z" style="stroke: none; stroke-width: 1; stroke-dasharray: none; stroke-linecap: butt; stroke-linejoin: miter; stroke-miterlimit: 10; fill: #A0DCF0; fill-rule: nonzero; opacity: 1;" transform=" matrix(1 0 0 1 0 0) " stroke-linecap="round" />
  <path d="M 308.966 326.621 v 70.621 c 0 4.875 -3.953 8.828 -8.828 8.828 h 158.897 c 4.875 0 8.828 -3.953 8.828 -8.828 v -70.621 c 0 -4.875 -3.953 -8.828 -8.828 -8.828 H 300.138 C 305.013 317.793 308.966 321.746 308.966 326.621 z" style="stroke: none; stroke-width: 1; stroke-dasharray: none; stroke-linecap: butt; stroke-linejoin: miter; stroke-miterlimit: 10; fill: #DEE3ED; fill-rule: nonzero; opacity: 1;" transform=" matrix(1 0 0 1 0 0) " stroke-linecap="round" />
  <path d="M 291.31 406.069 h 8.828 c 4.875 0 8.828 -3.953 8.828 -8.828 v -70.621 c 0 -4.875 -3.953 -8.828 -8.828 -8.828 h -8.828 c -4.875 0 -8.828 3.953 -8.828 8.828 v 70.621 C 282.483 402.116 286.435 406.069 291.31 406.069 z" style="stroke: none; stroke-width: 1; stroke-dasharray: none; stroke-linecap: butt; stroke-linejoin: miter; stroke-miterlimit: 10; fill: #91E6BE; fill-rule: nonzero; opacity: 1;" transform=" matrix(1 0 0 1 0 0) " stroke-linecap="round" />
  <path d="M 203.034 303.601 c 0 29.252 23.713 52.966 52.966 52.966 V 250.635 C 226.748 250.635 203.034 274.348 203.034 303.601 z" style="stroke: none; stroke-width: 1; stroke-dasharray: none; stroke-linecap: butt; stroke-linejoin: miter; stroke-miterlimit: 10; fill: #464655; fill-rule: nonzero; opacity: 1;" transform=" matrix(1 0 0 1 0 0) " stroke-linecap="round" />
  <path d="M 232.274 397.662 l -6.305 10.921 c -2.438 4.222 -7.837 5.668 -12.058 3.231 l -30.58 -17.655 c -4.222 -2.438 -5.668 -7.837 -3.231 -12.06 l 6.285 -10.885 c -11.05 -11.375 -19.293 -25.443 -23.736 -41.13 h -12.579 c -4.875 0 -8.828 -3.953 -8.828 -8.828 v -35.31 c 0 -4.875 3.953 -8.828 8.828 -8.828 h 12.578 c 4.442 -15.688 12.686 -29.754 23.735 -41.129 l -6.283 -10.882 c -2.438 -4.223 -0.991 -9.622 3.231 -12.06 l 30.58 -17.655 c 4.222 -2.438 9.621 -0.991 12.058 3.231 l 6.303 10.919 c 7.608 -1.914 15.528 -3.043 23.729 -3.043 v -38.774 v -52.966 H 26.483 h -7.724 c -0.609 0 -1.103 0.494 -1.103 1.103 v 7.724 v 44.138 v 256 v 7.724 c 0 0.609 0.494 1.103 1.103 1.103 h 7.724 H 256 v -31.848 C 247.799 400.704 239.88 399.576 232.274 397.662 z M 130.24 239.834 c -4.63 3.064 -9.852 5.306 -15.481 6.449 V 256 c 0 4.876 -3.953 8.829 -8.829 8.828 c -4.875 0 -8.828 -3.953 -8.828 -8.828 v -9.718 c -5.632 -1.142 -10.856 -3.384 -15.486 -6.451 l -6.897 6.897 c -3.447 3.448 -9.036 3.448 -12.484 0 c -3.447 -3.447 -3.447 -9.036 0 -12.483 l 6.897 -6.898 c -3.065 -4.629 -5.308 -9.854 -6.451 -15.485 h -9.716 c -4.875 0 -8.828 -3.953 -8.828 -8.828 s 3.953 -8.828 8.828 -8.828 h 9.717 c 1.143 -5.632 3.384 -10.854 6.45 -15.482 l -6.901 -6.901 c -3.447 -3.448 -3.447 -9.037 0 -12.484 l 0 0 c 3.448 -3.448 9.036 -3.447 12.483 0 l 6.9 6.9 c 4.631 -3.065 9.855 -5.309 15.488 -6.452 v -9.717 c 0 -4.876 3.953 -8.829 8.829 -8.828 c 4.875 0 8.828 3.953 8.828 8.828 v 9.717 c 5.632 1.143 10.855 3.385 15.485 6.451 l 6.897 -6.897 c 3.447 -3.448 9.036 -3.448 12.484 0 c 3.447 3.447 3.447 9.036 0 12.483 l -6.897 6.898 c 3.065 4.629 5.308 9.854 6.451 15.485 h 9.718 c 4.875 0 8.828 3.953 8.828 8.828 s -3.953 8.828 -8.828 8.828 h -9.717 c -1.144 5.633 -3.385 10.858 -6.453 15.489 l 6.894 6.894 c 3.447 3.448 3.447 9.037 0 12.484 l 0 0 c -3.447 3.448 -9.036 3.447 -12.483 0 L 130.24 239.834 z" style="stroke: none; stroke-width: 1; stroke-dasharray: none; stroke-linecap: butt; stroke-linejoin: miter; stroke-miterlimit: 10; fill: #464655; fill-rule: nonzero; opacity: 1;" transform=" matrix(1 0 0 1 0 0) " stroke-linecap="round" />
  <circle cx="105.935" cy="203.035" r="17.655" style="stroke: none; stroke-width: 1; stroke-dasharray: none; stroke-linecap: butt; stroke-linejoin: miter; stroke-miterlimit: 10; fill: #464655; fill-rule: nonzero; opacity: 1;" transform="  matrix(1 0 0 1 0 0) "/>
  <path d="M 225.967 198.622 c -2.438 -4.222 -7.837 -5.668 -12.058 -3.231 l -30.58 17.655 c -4.222 2.438 -5.668 7.837 -3.231 12.06 l 6.283 10.882 c -11.049 11.375 -19.292 25.442 -23.735 41.129 h -12.577 c -4.875 0 -8.828 3.953 -8.828 8.828 v 35.31 c 0 4.875 3.953 8.828 8.828 8.828 h 12.578 c 4.444 15.688 12.687 29.756 23.736 41.13 l -6.285 10.885 c -2.438 4.223 -0.991 9.622 3.231 12.06 l 30.58 17.655 c 4.222 2.438 9.621 0.991 12.058 -3.231 l 6.305 -10.921 c 7.607 1.914 15.526 3.042 23.726 3.042 V 374.22 c -39.002 0 -70.621 -31.618 -70.621 -70.621 s 31.618 -70.621 70.621 -70.621 v -26.483 c -8.202 0 -16.121 1.128 -23.729 3.043 L 225.967 198.622 z" style="stroke: none; stroke-width: 1; stroke-dasharray: none; stroke-linecap: butt; stroke-linejoin: miter; stroke-miterlimit: 10; fill: #707384; fill-rule: nonzero; opacity: 1;" transform=" matrix(1 0 0 1 0 0) " stroke-linecap="round" />
  <path d="M 185.379 303.601 c 0 39.003 31.618 70.621 70.621 70.621 v -17.655 c -29.252 0 -52.966 -23.713 -52.966 -52.966 c 0 -29.252 23.713 -52.966 52.966 -52.966 V 232.98 C 216.998 232.98 185.379 264.598 185.379 303.601 z" style="stroke: none; stroke-width: 1; stroke-dasharray: none; stroke-linecap: butt; stroke-linejoin: miter; stroke-miterlimit: 10; fill: #9097AA; fill-rule: nonzero; opacity: 1;" transform=" matrix(1 0 0 1 0 0) " stroke-linecap="round" />
  <path d="M 149.62 246.731 L 149.62 246.731 c 3.448 -3.447 3.448 -9.036 0.001 -12.484 l -6.894 -6.894 c 3.066 -4.631 5.309 -9.856 6.453 -15.489 h 9.717 c 4.875 0 8.828 -3.953 8.828 -8.828 c 0 -4.875 -3.953 -8.828 -8.828 -8.828 h -9.717 c -1.143 -5.632 -3.385 -10.856 -6.451 -15.485 l 6.897 -6.898 c 3.447 -3.447 3.447 -9.036 0 -12.483 c -3.448 -3.448 -9.037 -3.448 -12.484 0 l -6.897 6.897 c -4.63 -3.064 -9.854 -5.308 -15.485 -6.451 v -9.717 c 0 -4.875 -3.953 -8.828 -8.828 -8.828 c -4.876 -0.001 -8.829 3.951 -8.829 8.828 v 9.717 c -5.633 1.143 -10.857 3.385 -15.488 6.452 l -6.9 -6.9 c -3.447 -3.447 -9.036 -3.448 -12.483 0 l 0 0 c -3.448 3.447 -3.448 9.036 0 12.484 l 6.901 6.901 c -3.064 4.629 -5.306 9.852 -6.45 15.482 h -9.718 c -4.875 0 -8.828 3.953 -8.828 8.828 c 0 4.875 3.953 8.828 8.828 8.828 h 9.717 c 1.143 5.632 3.385 10.856 6.451 15.485 l -6.897 6.898 c -3.447 3.447 -3.447 9.036 0 12.483 c 3.448 3.448 9.037 3.448 12.484 0 l 6.897 -6.897 c 4.63 3.065 9.854 5.309 15.486 6.451 V 256 c 0 4.875 3.953 8.828 8.828 8.828 c 4.876 0.001 8.829 -3.951 8.829 -8.828 v -9.718 c 5.63 -1.142 10.851 -3.383 15.481 -6.449 l 6.897 6.897 C 140.584 250.178 146.173 250.179 149.62 246.731 z M 105.931 229.517 c -14.626 0 -26.483 -11.857 -26.483 -26.483 c 0 -14.626 11.857 -26.483 26.483 -26.483 s 26.483 11.857 26.483 26.483 C 132.414 217.661 120.557 229.517 105.931 229.517 z" style="stroke: none; stroke-width: 1; stroke-dasharray: none; stroke-linecap: butt; stroke-linejoin: miter; stroke-miterlimit: 10; fill: #707384; fill-rule: nonzero; opacity: 1;" transform=" matrix(1 0 0 1 0 0) " stroke-linecap="round" />
  <path d="M 105.931 176.552 c -14.626 0 -26.483 11.857 -26.483 26.483 c 0 14.626 11.857 26.483 26.483 26.483 s 26.483 -11.857 26.483 -26.483 C 132.414 188.408 120.557 176.552 105.931 176.552 z M 105.931 220.69 c -9.75 0 -17.655 -7.905 -17.655 -17.655 c 0 -9.751 7.905 -17.655 17.655 -17.655 s 17.655 7.904 17.655 17.655 C 123.586 212.785 115.681 220.69 105.931 220.69 z" style="stroke: none; stroke-width: 1; stroke-dasharray: none; stroke-linecap: butt; stroke-linejoin: miter; stroke-miterlimit: 10; fill: #9097AA; fill-rule: nonzero; opacity: 1;" transform=" matrix(1 0 0 1 0 0) " stroke-linecap="round" />
</g>
  <g transform="translate(135.81 332.48) scale(1.76 1.59)">
   <text font-family="ADAMCG PRO" font-size="40" font-weight="bold" style="stroke: none; stroke-width: 1; stroke-dasharray: none; stroke-linecap: butt; stroke-linejoin: miter; stroke-miterlimit: 10; fill: #a60f0f; fill-rule: nonzero; opacity: 1;" ><tspan x="-59.62" y="8.98" style="stroke: none; stroke-width: 0; stroke-dasharray: none; stroke-linecap: butt; stroke-linejoin: miter; stroke-miterlimit: 4; fill: #a60f0f; fill-rule: ; opacity: 1;">J</tspan><tspan x="-41.98" y="8.98" style="stroke: none; stroke-width: 0; stroke-dasharray: none; stroke-linecap: butt; stroke-linejoin: miter; stroke-miterlimit: 4; fill: #a60f0f; fill-rule: ; opacity: 1;">H</tspan><tspan x="-13.85" y="8.98" style="stroke: none; stroke-width: 0; stroke-dasharray: none; stroke-linecap: butt; stroke-linejoin: miter; stroke-miterlimit: 4; fill: #a60f0f; fill-rule: ; opacity: 1;">W</tspan><tspan x="31.8" y="8.98" style="stroke: none; stroke-width: 0; stroke-dasharray: none; stroke-linecap: butt; stroke-linejoin: miter; stroke-miterlimit: 4; fill: #a60f0f; fill-rule: ; opacity: 1;">D</tspan></text>
 </g>
</svg>